<svg width="16" height="16" viewBox="0 0 16 16" fill="none" xmlns="http://www.w3.org/2000/svg">
<g clip-path="url(#clip0_5978_2)">
<mask id="mask0_5978_2" style="mask-type:luminance" maskUnits="userSpaceOnUse" x="0" y="0" width="16" height="16">
<path d="M16 0H0V16H16V0Z" fill="white"/>
</mask>
<g mask="url(#mask0_5978_2)">
<path d="M12.3546 4.35463C12.4011 4.30814 12.438 4.25295 12.4632 4.19222C12.4883 4.13148 12.5013 4.06638 12.5013 4.00063C12.5013 3.93489 12.4883 3.86979 12.4632 3.80905C12.438 3.74831 12.4011 3.69312 12.3546 3.64663C12.3081 3.60014 12.253 3.56327 12.1922 3.53811C12.1315 3.51295 12.0664 3.5 12.0006 3.5C11.9349 3.5 11.8698 3.51295 11.809 3.53811C11.7483 3.56327 11.6931 3.60014 11.6466 3.64663L5.00063 10.2936L1.85463 7.14663C1.80814 7.10014 1.75295 7.06327 1.69222 7.03811C1.63148 7.01295 1.56638 7 1.50063 7C1.36786 7 1.24052 7.05274 1.14663 7.14663C1.05275 7.24052 1 7.36786 1 7.50063C1 7.63341 1.05275 7.76074 1.14663 7.85463L4.64663 11.3546C4.69308 11.4012 4.74825 11.4381 4.809 11.4633C4.86974 11.4886 4.93486 11.5015 5.00063 11.5015C5.0664 11.5015 5.13152 11.4886 5.19227 11.4633C5.25301 11.4381 5.30819 11.4012 5.35463 11.3546L12.3546 4.35463ZM8.14663 11.3546L7.25063 10.4576L7.95763 9.75063L8.50063 10.2936L15.1466 3.64663C15.2405 3.55274 15.3679 3.5 15.5006 3.5C15.6334 3.5 15.7607 3.55274 15.8546 3.64663C15.9485 3.74052 16.0013 3.86786 16.0013 4.00063C16.0013 4.13341 15.9485 4.26075 15.8546 4.35463L8.85463 11.3546C8.80819 11.4012 8.75301 11.4381 8.69227 11.4633C8.63152 11.4886 8.5664 11.5015 8.50063 11.5015C8.43486 11.5015 8.36974 11.4886 8.309 11.4633C8.24825 11.4381 8.19308 11.4012 8.14663 11.3546Z" fill="url(#paint0_linear_5978_2)"/>
<path d="M5.35463 7.14663L6.25063 8.04363L5.54363 8.75063L4.64663 7.85463C4.55275 7.76075 4.5 7.63341 4.5 7.50063C4.5 7.36786 4.55275 7.24052 4.64663 7.14663C4.74052 7.05275 4.86786 7 5.00063 7C5.13341 7 5.26075 7.05275 5.35463 7.14663Z" fill="url(#paint1_linear_5978_2)"/>
</g>
</g>
<defs>
<linearGradient id="paint0_linear_5978_2" x1="6" y1="4" x2="8.50063" y2="11.5015" gradientUnits="userSpaceOnUse">
<stop stop-color="#3692FF"/>
<stop offset="1" stop-color="#0058BF"/>
</linearGradient>
<linearGradient id="paint1_linear_5978_2" x1="5.37532" y1="7" x2="5.37532" y2="8.75063" gradientUnits="userSpaceOnUse">
<stop stop-color="#3692FF"/>
<stop offset="1" stop-color="#3692FF"/>
</linearGradient>
<clipPath id="clip0_5978_2">
<rect width="16" height="16" fill="white"/>
</clipPath>
</defs>
</svg>
